<svg xmlns="http://www.w3.org/2000/svg" viewBox="0 0 32 32">
  <circle cx="16" cy="16" r="16" fill="#E6F3F8"/>
  <circle cx="16" cy="16" r="14" fill="none" stroke="#4A90E2" stroke-width="2"/>
  <circle cx="16" cy="16" r="12" fill="none" stroke="#4A90E2" stroke-width="1"/>
  
  <!-- Network nodes -->
  <g fill="#4A90E2">
    <circle cx="16" cy="8" r="1.5"/>
    <circle cx="8" cy="12" r="1"/>
    <circle cx="12" cy="5" r="1"/>
    <circle cx="20" cy="5" r="1"/>
    <circle cx="24" cy="12" r="1"/>
    <circle cx="24" cy="20" r="1"/>
    <circle cx="20" cy="27" r="1"/>
    <circle cx="12" cy="27" r="1"/>
    <circle cx="8" cy="20" r="1"/>
  </g>
  
  <!-- Connecting lines -->
  <g stroke="#4A90E2" stroke-width="0.5">
    <line x1="16" y1="8" x2="12" y2="5"/>
    <line x1="16" y1="8" x2="20" y2="5"/>
    <line x1="12" y1="5" x2="8" y2="12"/>
    <line x1="20" y1="5" x2="24" y2="12"/>
    <line x1="8" y1="12" x2="8" y2="20"/>
    <line x1="24" y1="12" x2="24" y2="20"/>
    <line x1="8" y1="20" x2="12" y2="27"/>
    <line x1="24" y1="20" x2="20" y2="27"/>
    <line x1="12" y1="27" x2="16" y2="24"/>
    <line x1="20" y1="27" x2="16" y2="24"/>
    <line x1="16" y1="8" x2="16" y2="12"/>
    <line x1="16" y1="12" x2="8" y2="12"/>
    <line x1="16" y1="12" x2="24" y2="12"/>
    <line x1="16" y1="12" x2="16" y2="20"/>
    <line x1="16" y1="20" x2="8" y2="20"/>
    <line x1="16" y1="20" x2="24" y2="20"/>
    <line x1="16" y1="20" x2="16" y2="24"/>
  </g>
  
  <!-- School building -->
  <g fill="#4A90E2">
    <rect x="11" y="15" width="10" height="8" rx="0.5"/>
    <polygon points="10,15 16,11 22,15"/>
    <rect x="14" y="20" width="4" height="3" rx="0.2"/>
    <rect x="12" y="17" width="2" height="2" rx="0.2"/>
    <rect x="18" y="17" width="2" height="2" rx="0.2"/>
    <rect x="12" y="19" width="2" height="2" rx="0.2"/>
    <rect x="18" y="19" width="2" height="2" rx="0.2"/>
  </g>
</svg>